<svg width="17" height="17" viewBox="0 0 17 17" fill="none" xmlns="http://www.w3.org/2000/svg">
<path d="M17 1.53979C17 0.68939 16.3106 1.66951e-06 15.4602 1.97236e-06L1.60207 1.10706e-06C0.751666 1.10706e-06 0.0622773 0.68939 0.0622773 1.53979C0.0622773 2.3902 0.751666 3.07959 1.60207 3.07959L13.9204 3.07959L13.9204 15.3979C13.9204 16.2483 14.6098 16.9377 15.4602 16.9377C16.3106 16.9377 17 16.2483 17 15.3979L17 1.53979ZM1.08881 15.9112L2.1776 17L16.549 2.62859L15.4602 1.53979L14.3714 0.450996L9.02492e-06 14.8224L1.08881 15.9112Z" fill="white"/>
</svg>
