<svg width="17" height="17" viewBox="0 0 17 17" fill="none" xmlns="http://www.w3.org/2000/svg">
<g clip-path="url(#clip0_203_234)">
<path d="M8.49989 0C3.81305 0 0 3.81305 0 8.49989C0 13.1867 3.81305 16.9998 8.49989 16.9998C13.1867 16.9998 16.9998 13.1867 16.9998 8.49989C16.9998 3.81305 13.1867 0 8.49989 0ZM8.49989 14.6816C5.09128 14.6816 2.31815 11.9085 2.31815 8.49989C2.31815 5.09128 5.09128 2.31815 8.49989 2.31815C11.9085 2.31815 14.6816 5.09128 14.6816 8.49989C14.6816 11.9085 11.9085 14.6816 8.49989 14.6816ZM10.7963 9.91118L12.0494 11.0753L11.418 11.6279C10.627 12.32 9.61662 12.7012 8.57307 12.7012C6.22833 12.7012 4.32073 10.833 4.32073 8.53667C4.32073 6.24564 6.22833 4.38169 8.57307 4.38169C9.61747 4.38169 10.6245 4.7594 11.4083 5.44526L12.0167 5.97766L10.8157 7.17932L10.2825 6.70819C9.82371 6.30305 9.21674 6.07989 8.57307 6.07989C7.16471 6.07989 6.01893 7.18202 6.01893 8.53659C6.01893 9.89658 7.16471 11.003 8.57307 11.003C9.20963 11.003 9.81668 10.7763 10.2825 10.3648L10.7963 9.91118Z" fill="white" fill-opacity="0.6"/>
</g>
<defs>
<clipPath id="clip0_203_234">
<rect width="16.7752" height="16.7752" fill="white" transform="scale(1.01339)"/>
</clipPath>
</defs>
</svg>
