<svg width="92" height="92" viewBox="0 0 92 92" fill="none" xmlns="http://www.w3.org/2000/svg">
<path d="M46 61.3332C48.1171 61.3332 49.8333 59.6169 49.8333 57.4998C49.8333 55.3827 48.1171 53.6665 46 53.6665C43.8829 53.6665 42.1667 55.3827 42.1667 57.4998C42.1667 59.6169 43.8829 61.3332 46 61.3332Z" fill="#0039C7"/>
<path d="M65.1667 30.6667H61.3333V23.4217C61.3333 19.3551 59.7179 15.455 56.8423 12.5794C53.9667 9.70385 50.0666 8.08838 46 8.08838C41.9333 8.08838 38.0332 9.70385 35.1577 12.5794C32.2821 15.455 30.6667 19.3551 30.6667 23.4217V30.6667H26.8333C23.7833 30.6667 20.8583 31.8783 18.7016 34.035C16.5449 36.1917 15.3333 39.1167 15.3333 42.1667V72.8334C15.3333 75.8834 16.5449 78.8084 18.7016 80.9651C20.8583 83.1218 23.7833 84.3334 26.8333 84.3334H65.1667C68.2167 84.3334 71.1417 83.1218 73.2984 80.9651C75.4551 78.8084 76.6667 75.8834 76.6667 72.8334V42.1667C76.6667 39.1167 75.4551 36.1917 73.2984 34.035C71.1417 31.8783 68.2167 30.6667 65.1667 30.6667ZM38.3333 23.4217C38.2818 21.3337 39.0595 19.3103 40.4964 17.7944C41.9333 16.2785 43.9122 15.3936 46 15.3334C48.0878 15.3936 50.0667 16.2785 51.5036 17.7944C52.9404 19.3103 53.7182 21.3337 53.6667 23.4217V30.6667H38.3333V23.4217ZM46 69C43.7255 69 41.5021 68.3256 39.6109 67.062C37.7198 65.7983 36.2458 64.0023 35.3754 61.9009C34.505 59.7996 34.2772 57.4873 34.721 55.2565C35.1647 53.0257 36.26 50.9766 37.8683 49.3683C39.4766 47.76 41.5257 46.6647 43.7565 46.221C45.9872 45.7773 48.2995 46.005 50.4009 46.8754C52.5022 47.7458 54.2983 49.2198 55.5619 51.111C56.8255 53.0022 57.5 55.2256 57.5 57.5C57.5 60.55 56.2884 63.4751 54.1317 65.6318C51.9751 67.7884 49.05 69 46 69Z" fill="#0039C7"/>
</svg>
