<svg width="26" height="26" viewBox="0 0 26 26" fill="none" xmlns="http://www.w3.org/2000/svg">
<path d="M13 22.75C18.9831 22.75 23.8333 17.8998 23.8333 11.9167C23.8333 5.93362 18.9831 1.08337 13 1.08337C7.01692 1.08337 2.16667 5.93362 2.16667 11.9167C2.16667 17.8998 7.01692 22.75 13 22.75Z" fill="#FFF59D"/>
<path d="M20.0417 11.9167C20.0417 7.74583 16.4667 4.44166 12.1875 4.92916C8.9375 5.30833 6.3375 7.90833 6.0125 11.1583C5.74167 13.65 6.77083 15.8708 8.50417 17.2792C9.2625 17.9292 9.75 18.85 9.75 19.8792V20.0417H16.25V19.9875C16.25 19.0125 16.6833 18.0375 17.4417 17.3875C19.0125 16.0875 20.0417 14.1375 20.0417 11.9167Z" fill="#FBC02D"/>
<path d="M16.575 10.9417L14.95 9.85835C14.7875 9.75002 14.5167 9.75002 14.3542 9.85835L13 10.725L11.7 9.85835C11.5375 9.75002 11.2667 9.75002 11.1042 9.85835L9.47916 10.9417C9.37083 11.05 9.2625 11.1583 9.2625 11.3208C9.2625 11.4833 9.2625 11.6458 9.37083 11.7542L11.4292 14.3V20.0417H12.5125V14.0833C12.5125 13.975 12.4583 13.8667 12.4042 13.7583L10.6167 11.5375L11.4292 10.9958L12.7292 11.8625C12.8917 11.9708 13.1625 11.9708 13.325 11.8625L14.625 10.9958L15.4375 11.5375L13.65 13.7583C13.5958 13.8667 13.5417 13.975 13.5417 14.0833V20.0417H14.625V14.3L16.6833 11.7542C16.7917 11.6458 16.8458 11.4833 16.7917 11.3208C16.7375 11.1583 16.6833 10.9958 16.575 10.9417Z" fill="#FFF59D"/>
<path d="M13 25.4584C13.8975 25.4584 14.625 24.7308 14.625 23.8334C14.625 22.9359 13.8975 22.2084 13 22.2084C12.1025 22.2084 11.375 22.9359 11.375 23.8334C11.375 24.7308 12.1025 25.4584 13 25.4584Z" fill="#5C6BC0"/>
<path d="M14.0833 24.375H11.9167C10.725 24.375 9.75 23.4 9.75 22.2083V19.5H16.25V22.2083C16.25 23.4 15.275 24.375 14.0833 24.375Z" fill="#9FA8DA"/>
<path d="M16.25 22.2083L9.96667 23.075C10.1292 23.4541 10.4542 23.8333 10.8333 24.05L15.925 23.3458C16.1417 23.0208 16.25 22.6416 16.25 22.2083ZM9.75 20.9625V22.0458L16.25 21.125V20.0416L9.75 20.9625Z" fill="#5C6BC0"/>
</svg>
