<svg width="41" height="41" viewBox="0 0 41 41" fill="none" xmlns="http://www.w3.org/2000/svg">
<path d="M20.5 3.41675C18.6877 3.41675 16.9496 4.13669 15.6681 5.41819C14.3866 6.69968 13.6666 8.43777 13.6666 10.2501C13.6666 12.0624 14.3866 13.8005 15.6681 15.082C16.9496 16.3635 18.6877 17.0834 20.5 17.0834C22.3123 17.0834 24.0504 16.3635 25.3319 15.082C26.6134 13.8005 27.3333 12.0624 27.3333 10.2501C27.3333 8.43777 26.6134 6.69968 25.3319 5.41819C24.0504 4.13669 22.3123 3.41675 20.5 3.41675ZM29.0416 20.5001H11.9583C10.5991 20.5001 9.29551 21.04 8.33439 22.0012C7.37327 22.9623 6.83331 24.2658 6.83331 25.6251C6.83331 29.4381 8.40156 32.4926 10.9743 34.5597C13.5061 36.5926 16.9022 37.5834 20.5 37.5834C24.0977 37.5834 27.4939 36.5926 30.0256 34.5597C32.595 32.4926 34.1666 29.4381 34.1666 25.6251C34.1666 24.2658 33.6267 22.9623 32.6656 22.0012C31.7044 21.04 30.4009 20.5001 29.0416 20.5001Z" fill="#0039C7"/>
</svg>
