<svg width="17" height="17" viewBox="0 0 17 17" fill="none" xmlns="http://www.w3.org/2000/svg">
<path d="M8.50008 3.54169C8.31222 3.54169 8.13205 3.61631 7.99921 3.74915C7.86638 3.88199 7.79175 4.06216 7.79175 4.25002V7.08335C7.79175 7.27122 7.86638 7.45138 7.99921 7.58422C8.13205 7.71706 8.31222 7.79169 8.50008 7.79169C8.68794 7.79169 8.86811 7.71706 9.00095 7.58422C9.13379 7.45138 9.20841 7.27122 9.20841 7.08335V4.25002C9.20841 4.06216 9.13379 3.88199 9.00095 3.74915C8.86811 3.61631 8.68794 3.54169 8.50008 3.54169Z" fill="white"/>
<path fill-rule="evenodd" clip-rule="evenodd" d="M2.83337 5.66667C2.83337 4.16377 3.4304 2.72243 4.4931 1.65973C5.55581 0.597022 6.99715 0 8.50004 0C10.0029 0 11.4443 0.597022 12.507 1.65973C13.5697 2.72243 14.1667 4.16377 14.1667 5.66667V11.3333C14.1667 12.8362 13.5697 14.2776 12.507 15.3403C11.4443 16.403 10.0029 17 8.50004 17C6.99715 17 5.55581 16.403 4.4931 15.3403C3.4304 14.2776 2.83337 12.8362 2.83337 11.3333V5.66667ZM12.75 5.66667V11.3333C12.75 12.4605 12.3023 13.5415 11.5052 14.3385C10.7082 15.1356 9.62721 15.5833 8.50004 15.5833C7.37287 15.5833 6.29187 15.1356 5.49484 14.3385C4.69781 13.5415 4.25004 12.4605 4.25004 11.3333V5.66667C4.25004 4.5395 4.69781 3.45849 5.49484 2.66146C6.29187 1.86443 7.37287 1.41667 8.50004 1.41667C9.62721 1.41667 10.7082 1.86443 11.5052 2.66146C12.3023 3.45849 12.75 4.5395 12.75 5.66667Z" fill="white"/>
</svg>
