<svg width="35" height="35" viewBox="0 0 35 35" fill="none" xmlns="http://www.w3.org/2000/svg">
<path d="M20.4167 5.10425H14.5834C9.08398 5.10425 6.33356 5.10425 4.62585 6.81341C2.91815 8.52258 2.91669 11.2715 2.91669 16.7709V18.2292C2.91669 23.7286 2.91669 26.479 4.62585 28.1867C6.33502 29.8945 9.08398 29.8959 14.5834 29.8959H20.4167C25.9161 29.8959 28.6665 29.8959 30.3742 28.1867C32.0819 26.4776 32.0834 23.7286 32.0834 18.2292V16.7709C32.0834 11.2715 32.0834 8.52112 30.3742 6.81341C28.665 5.10571 25.9161 5.10425 20.4167 5.10425Z" stroke="white" stroke-width="2" stroke-linecap="round" stroke-linejoin="round"/>
<path d="M7.29169 23.3334C8.80252 19.5695 14.4317 19.323 16.0417 23.3334M20.4167 12.3959H27.7084M20.4167 17.5001H27.7084M20.4167 22.6042H24.0625M14.2188 14.2188C14.2188 14.8957 13.9499 15.5448 13.4713 16.0234C12.9927 16.502 12.3435 16.7709 11.6667 16.7709C10.9898 16.7709 10.3407 16.502 9.86209 16.0234C9.38348 15.5448 9.1146 14.8957 9.1146 14.2188C9.1146 13.542 9.38348 12.8928 9.86209 12.4142C10.3407 11.9356 10.9898 11.6667 11.6667 11.6667C12.3435 11.6667 12.9927 11.9356 13.4713 12.4142C13.9499 12.8928 14.2188 13.542 14.2188 14.2188Z" stroke="white" stroke-width="2" stroke-linecap="round" stroke-linejoin="round"/>
</svg>
