<svg width="38" height="38" viewBox="0 0 38 38" fill="none" xmlns="http://www.w3.org/2000/svg">
<path d="M31.6666 23.75V11.875L21.7708 6.30884M16.2291 6.30884L6.33331 11.875V23.75M8.70831 27.4614L19 33.25L25.3333 29.6875L29.2916 27.4614M19 13.4584L21.375 14.8438L23.75 16.2292V21.7709L21.375 23.1563L19 24.5417L16.625 23.1563L14.25 21.7709V16.2292L16.625 14.8438L19 13.4584ZM19 13.4584V7.91671M23.75 21.375L29.2916 24.5417M14.25 21.375L8.70831 24.5417" stroke="white" stroke-width="2" stroke-linecap="round" stroke-linejoin="round"/>
<path d="M19 7.91675C20.3117 7.91675 21.375 6.85342 21.375 5.54175C21.375 4.23007 20.3117 3.16675 19 3.16675C17.6883 3.16675 16.625 4.23007 16.625 5.54175C16.625 6.85342 17.6883 7.91675 19 7.91675Z" stroke="white" stroke-width="2" stroke-linecap="round" stroke-linejoin="round"/>
<path d="M6.33331 28.5C7.64499 28.5 8.70831 27.4367 8.70831 26.125C8.70831 24.8133 7.64499 23.75 6.33331 23.75C5.02164 23.75 3.95831 24.8133 3.95831 26.125C3.95831 27.4367 5.02164 28.5 6.33331 28.5Z" stroke="white" stroke-width="2" stroke-linecap="round" stroke-linejoin="round"/>
<path d="M31.6666 28.5C32.9783 28.5 34.0416 27.4367 34.0416 26.125C34.0416 24.8133 32.9783 23.75 31.6666 23.75C30.3549 23.75 29.2916 24.8133 29.2916 26.125C29.2916 27.4367 30.3549 28.5 31.6666 28.5Z" stroke="white" stroke-width="2" stroke-linecap="round" stroke-linejoin="round"/>
</svg>
