<svg width="31" height="31" viewBox="0 0 31 31" fill="none" xmlns="http://www.w3.org/2000/svg">
<path d="M18.0834 16.7917C17.007 16.7917 16.092 16.415 15.3386 15.6615C14.5851 14.9081 14.2084 13.9931 14.2084 12.9167C14.2084 11.8404 14.5851 10.9254 15.3386 10.172C16.092 9.41848 17.007 9.04175 18.0834 9.04175C19.1597 9.04175 20.0747 9.41848 20.8281 10.172C21.5816 10.9254 21.9584 11.8404 21.9584 12.9167C21.9584 13.9931 21.5816 14.9081 20.8281 15.6615C20.0747 16.415 19.1597 16.7917 18.0834 16.7917ZM9.04169 20.6667C8.33127 20.6667 7.72333 20.414 7.21785 19.9085C6.71238 19.4031 6.45922 18.7947 6.45835 18.0834V7.75008C6.45835 7.03966 6.71152 6.43172 7.21785 5.92625C7.72419 5.42078 8.33213 5.16761 9.04169 5.16675H27.125C27.8354 5.16675 28.4438 5.41991 28.9501 5.92625C29.4565 6.43258 29.7092 7.04053 29.7084 7.75008V18.0834C29.7084 18.7938 29.4556 19.4022 28.9501 19.9085C28.4447 20.4149 27.8363 20.6676 27.125 20.6667H9.04169ZM11.625 18.0834H24.5417C24.5417 17.373 24.7949 16.7651 25.3012 16.2596C25.8075 15.7541 26.4155 15.5009 27.125 15.5001V10.3334C26.4146 10.3334 25.8067 10.0807 25.3012 9.57521C24.7957 9.06973 24.5425 8.46136 24.5417 7.75008H11.625C11.625 8.4605 11.3723 9.06887 10.8668 9.57521C10.3613 10.0815 9.75296 10.3343 9.04169 10.3334V15.5001C9.7521 15.5001 10.3605 15.7532 10.8668 16.2596C11.3731 16.7659 11.6259 17.3739 11.625 18.0834ZM25.8334 25.8334H3.87502C3.1646 25.8334 2.55666 25.5807 2.05119 25.0752C1.54571 24.5697 1.29255 23.9614 1.29169 23.2501V9.04175H3.87502V23.2501H25.8334V25.8334Z" fill="white"/>
</svg>
