<svg width="66" height="66" viewBox="0 0 66 66" fill="none" xmlns="http://www.w3.org/2000/svg">
<path d="M54.8625 57.75C49.1333 57.75 43.4729 56.5015 37.8812 54.0045C32.2896 51.5075 27.2021 47.9664 22.6188 43.3812C18.0354 38.7961 14.4952 33.7086 11.9982 28.1188C9.50125 22.5289 8.25183 16.8685 8.25 11.1375C8.25 10.3125 8.525 9.625 9.075 9.075C9.625 8.525 10.3125 8.25 11.1375 8.25H22.275C22.9167 8.25 23.4896 8.46817 23.9938 8.9045C24.4979 9.34083 24.7958 9.856 24.8875 10.45L26.675 20.075C26.7667 20.8083 26.7437 21.4271 26.6063 21.9312C26.4688 22.4354 26.2167 22.8708 25.85 23.2375L19.1812 29.975C20.0979 31.6708 21.186 33.3089 22.4455 34.8893C23.705 36.4696 25.0919 37.994 26.6063 39.4625C28.0271 40.8833 29.5167 42.2015 31.075 43.417C32.6333 44.6325 34.2833 45.7435 36.025 46.75L42.4875 40.2875C42.9 39.875 43.439 39.5661 44.1045 39.3607C44.77 39.1554 45.4227 39.0977 46.0625 39.1875L55.55 41.1125C56.1917 41.2958 56.7188 41.6286 57.1312 42.1107C57.5438 42.5929 57.75 43.131 57.75 43.725V54.8625C57.75 55.6875 57.475 56.375 56.925 56.925C56.375 57.475 55.6875 57.75 54.8625 57.75Z" fill="#373737"/>
</svg>
