<svg width="29" height="29" viewBox="0 0 29 29" fill="none" xmlns="http://www.w3.org/2000/svg">
<path d="M14.5 10.875C15.4615 10.875 16.3835 11.2569 17.0633 11.9367C17.7431 12.6166 18.125 13.5386 18.125 14.5C18.125 15.4614 17.7431 16.3834 17.0633 17.0633C16.3835 17.7431 15.4615 18.125 14.5 18.125C13.5386 18.125 12.6166 17.7431 11.9368 17.0633C11.257 16.3834 10.875 15.4614 10.875 14.5C10.875 13.5386 11.257 12.6166 11.9368 11.9367C12.6166 11.2569 13.5386 10.875 14.5 10.875ZM14.5 5.4375C20.5417 5.4375 25.7013 9.19542 27.7917 14.5C25.7013 19.8046 20.5417 23.5625 14.5 23.5625C8.45837 23.5625 3.29879 19.8046 1.20837 14.5C3.29879 9.19542 8.45837 5.4375 14.5 5.4375ZM3.84254 14.5C4.81918 16.4941 6.3357 18.1742 8.2197 19.3493C10.1037 20.5245 12.2796 21.1474 14.5 21.1474C16.7205 21.1474 18.8964 20.5245 20.7804 19.3493C22.6644 18.1742 24.1809 16.4941 25.1575 14.5C24.1809 12.5059 22.6644 10.8258 20.7804 9.65065C18.8964 8.47554 16.7205 7.85257 14.5 7.85257C12.2796 7.85257 10.1037 8.47554 8.2197 9.65065C6.3357 10.8258 4.81918 12.5059 3.84254 14.5Z" fill="#0039C7"/>
<path d="M4 6L23 23" stroke="#0039C7" stroke-width="3"/>
</svg>
