<svg width="85" height="85" viewBox="0 0 85 85" fill="none" xmlns="http://www.w3.org/2000/svg">
<path d="M74.375 63.75V67.2917C74.375 69.1703 73.6287 70.972 72.3003 72.3003C70.972 73.6287 69.1703 74.375 67.2917 74.375H17.7083C15.8297 74.375 14.028 73.6287 12.6997 72.3003C11.3713 70.972 10.625 69.1703 10.625 67.2917V17.7083C10.625 15.8297 11.3713 14.028 12.6997 12.6997C14.028 11.3713 15.8297 10.625 17.7083 10.625H67.2917C69.1703 10.625 70.972 11.3713 72.3003 12.6997C73.6287 14.028 74.375 15.8297 74.375 17.7083V21.25H42.5C40.6214 21.25 38.8197 21.9963 37.4913 23.3247C36.1629 24.653 35.4167 26.4547 35.4167 28.3333V56.6667C35.4167 58.5453 36.1629 60.347 37.4913 61.6753C38.8197 63.0037 40.6214 63.75 42.5 63.75M42.5 56.6667H77.9167V28.3333H42.5M56.6667 47.8125C55.2577 47.8125 53.9064 47.2528 52.9102 46.2565C51.9139 45.2602 51.3542 43.909 51.3542 42.5C51.3542 41.091 51.9139 39.7398 52.9102 38.7435C53.9064 37.7472 55.2577 37.1875 56.6667 37.1875C58.0756 37.1875 59.4269 37.7472 60.4232 38.7435C61.4195 39.7398 61.9792 41.091 61.9792 42.5C61.9792 43.909 61.4195 45.2602 60.4232 46.2565C59.4269 47.2528 58.0756 47.8125 56.6667 47.8125Z" fill="#0039C7"/>
</svg>
