<svg width="22" height="22" viewBox="0 0 22 22" fill="none" xmlns="http://www.w3.org/2000/svg">
<path d="M19.0592 11.2062C19.0592 11.0687 19.0558 10.9329 19.0489 10.7988L21.3125 10.0047C21.2902 9.14537 21.1406 8.29459 20.8673 7.4799L18.2325 7.62428C17.9569 7.06166 17.6172 6.53279 17.2202 6.04818L18.6072 3.71068C18.0379 3.06665 17.3758 2.51111 16.6427 2.0624L14.6266 3.94959C13.9763 3.61437 13.2837 3.36865 12.5675 3.21912L12.1241 0.520684C11.2733 0.393496 10.4105 0.393496 9.55969 0.520684L9.23484 3.21912C8.53016 3.36521 7.86156 3.60412 7.23594 3.91865L5.16312 2.13975C4.43028 2.58887 3.76821 3.14436 3.19859 3.78803L4.63375 5.98803C4.28123 6.41153 3.97203 6.86929 3.71078 7.35443L0.938437 7.32006C0.665156 8.13475 0.515624 8.98725 0.491562 9.84662L2.77406 10.5393C2.75687 10.7593 2.74484 10.9827 2.74484 11.2079C2.74484 11.6994 2.79125 12.1807 2.87375 12.6499L0.792343 14.3532C1.10687 15.1524 1.54 15.9018 2.07453 16.5738L4.10094 15.7093C4.64234 16.5251 5.32578 17.237 6.11875 17.8113L5.59453 20.5905C6.35078 21.0013 7.16203 21.2969 8.00422 21.4671L9.16437 19.176C9.72469 19.298 10.3056 19.3633 10.902 19.3633C11.4589 19.3633 12.002 19.3066 12.528 19.2018L13.8016 21.4688C14.6438 21.2969 15.4567 21.0013 16.2112 20.5922L15.5805 17.8887C16.4192 17.3008 17.1411 16.5601 17.7066 15.7058L19.7295 16.469C20.2641 15.7969 20.6972 15.0476 21.0117 14.2483L18.9234 12.6826C19.0111 12.203 19.0592 11.7097 19.0592 11.2062ZM10.902 16.383C8.09359 16.383 5.81797 14.1074 5.81797 11.299C5.81797 8.49053 8.09359 6.2149 10.902 6.2149C13.7105 6.2149 15.9861 8.49053 15.9861 11.299C15.9861 14.1074 13.7105 16.383 10.902 16.383Z" fill="#78A3AD"/>
<path d="M10.902 6.21338C8.09359 6.21338 5.81796 8.489 5.81796 11.2974C5.81796 14.1059 8.09359 16.3815 10.902 16.3815C13.7105 16.3815 15.9861 14.1059 15.9861 11.2974C15.9861 8.489 13.7105 6.21338 10.902 6.21338ZM10.8814 13.5335C9.64562 13.5335 8.64015 12.5298 8.64015 11.2923C8.64015 11.2046 8.64703 11.1187 8.65562 11.0345C8.74328 9.88119 9.70406 8.97197 10.8797 8.97197C12.0553 8.97197 13.0161 9.88119 13.1037 11.0345C13.1141 11.1187 13.1192 11.2046 13.1192 11.2923C13.1227 12.5298 12.1189 13.5335 10.8814 13.5335Z" fill="#64878E"/>
<path d="M4.70077 9.735C4.66296 9.735 4.62343 9.72985 4.5839 9.72126C4.52291 9.706 4.46553 9.67885 4.41505 9.64137C4.36457 9.60389 4.32198 9.55682 4.28973 9.50285C4.25747 9.44888 4.23619 9.38908 4.22709 9.32687C4.21799 9.26466 4.22126 9.20126 4.23671 9.14032C4.31749 8.81547 4.42749 8.49579 4.56156 8.18985C4.58674 8.13222 4.62306 8.08012 4.66842 8.03656C4.71379 7.99299 4.76731 7.95881 4.82591 7.93598C4.88451 7.91314 4.94705 7.9021 5.00993 7.90349C5.07281 7.90488 5.1348 7.91867 5.19234 7.94407C5.43468 8.05063 5.54468 8.3325 5.43812 8.57485C5.32468 8.83266 5.23359 9.10251 5.16484 9.37407C5.13835 9.47711 5.07842 9.56846 4.99444 9.63378C4.91045 9.6991 4.80717 9.7347 4.70077 9.735ZM5.83687 7.75844C5.74997 7.75817 5.66478 7.73432 5.59038 7.68943C5.51597 7.64453 5.45515 7.58029 5.4144 7.50354C5.37364 7.4268 5.35448 7.34043 5.35896 7.25365C5.36344 7.16687 5.39139 7.08293 5.43984 7.01079C6.09809 6.03407 7.02604 5.26973 8.11077 4.81079C8.35484 4.70766 8.63499 4.8211 8.73812 5.06516C8.76272 5.12304 8.77566 5.18521 8.77619 5.2481C8.77672 5.31099 8.76482 5.37337 8.74119 5.43165C8.71756 5.48994 8.68265 5.54298 8.63847 5.58774C8.59429 5.63251 8.54171 5.66811 8.48374 5.6925C7.56933 6.07938 6.78709 6.72369 6.23218 7.54704C6.14109 7.68454 5.98984 7.75844 5.83687 7.75844Z" fill="white"/>
</svg>
