<svg width="28" height="32" viewBox="0 0 28 32" fill="none" xmlns="http://www.w3.org/2000/svg">
<path d="M12.5449 0.170126C13.173 -0.0525955 13.8742 -0.0571088 14.5136 0.159384L25.1327 3.72283C26.3214 4.11978 27.1252 5.21192 27.1317 6.4357L27.2 17.0606C27.2209 20.2814 26.0465 23.4051 23.8963 25.8525C22.9074 26.9759 21.6392 27.9408 20.0204 28.8037L14.3115 31.8554C14.1327 31.9495 13.9363 31.9984 13.7382 32C13.5402 32.0015 13.3421 31.9547 13.165 31.8623L7.4033 28.8808C5.76685 28.0321 4.48792 27.0812 3.48927 25.9736C1.30352 23.5512 0.0884273 20.4416 0.0674215 17.2159L3.91558e-05 6.59879C-0.0064034 5.37353 0.782723 4.27324 1.96487 3.86053L12.5449 0.170126ZM19.5917 11.5499C19.1165 11.0934 18.3514 11.0968 17.8827 11.5597L12.4931 16.8721L10.2861 14.7511C9.81092 14.2945 9.04747 14.299 8.57712 14.7618C8.10849 15.2247 8.1137 15.9684 8.58884 16.4249L11.6533 19.3741C11.8917 19.6031 12.2014 19.7161 12.5107 19.7129C12.8199 19.7114 13.1281 19.5955 13.3632 19.3633L19.6015 13.213C20.07 12.7502 20.0652 12.0064 19.5917 11.5499Z" fill="white"/>
</svg>
