<svg width="87" height="87" viewBox="0 0 87 87" fill="none" xmlns="http://www.w3.org/2000/svg">
<path fill-rule="evenodd" clip-rule="evenodd" d="M7.3515 40.7812C8.03727 31.6634 12.1434 23.1416 18.847 16.9233C25.5506 10.7051 34.3564 7.24985 43.5 7.25C40.4912 7.25 37.8087 8.5695 35.5975 10.5886C33.4044 12.5969 31.552 15.4026 30.0513 18.7159C28.5433 22.0509 27.3687 25.9514 26.5749 30.1818C25.931 33.6818 25.5457 37.2246 25.4221 40.7812H7.3515ZM7.3515 46.2188H25.4221C25.5526 49.851 25.9405 53.4253 26.5749 56.8182C27.3724 61.0486 28.5433 64.9491 30.0513 68.2841C31.552 71.5974 33.4044 74.4031 35.5975 76.4114C37.8087 78.4305 40.4912 79.75 43.5 79.75C24.3963 79.75 8.73988 64.9709 7.3515 46.2188Z" fill="#0039C7"/>
<path d="M43.5 12.3066C42.5031 12.3066 41.2163 12.7308 39.7191 14.101C38.2111 15.4821 36.6995 17.6463 35.3655 20.5934C34.0387 23.5224 32.9621 27.0568 32.2226 31.008C31.6426 34.1183 31.2801 37.417 31.1496 40.781H55.8504C55.7323 37.5015 55.3737 34.235 54.7774 31.008C54.0379 27.0568 52.9649 23.5224 51.6345 20.5934C50.3005 17.6463 48.7925 15.4821 47.2845 14.1046C45.7837 12.7308 44.4969 12.3066 43.5 12.3066ZM32.2226 55.9915C32.9621 59.9428 34.0387 63.4771 35.3655 66.4061C36.6995 69.3533 38.2111 71.5174 39.7155 72.8949C41.2163 74.2688 42.5068 74.6929 43.5 74.6929C44.4969 74.6929 45.7838 74.2688 47.2809 72.8985C48.7925 71.5174 50.3005 69.3533 51.6345 66.4061C52.9613 63.4771 54.0379 59.9428 54.7774 55.9915C55.361 52.8813 55.7235 49.5825 55.8504 46.2185H31.1496C31.2765 49.5825 31.639 52.8813 32.2226 55.9915Z" fill="#0039C7"/>
<path d="M43.5 7.25C46.5124 7.25 49.1913 8.5695 51.4025 10.5886C53.5956 12.5969 55.4516 15.4026 56.9487 18.7159C58.4604 22.0509 59.6313 25.9514 60.4251 30.1818C61.0595 33.5748 61.4474 37.149 61.5779 40.7812H79.6485C78.9627 31.6634 74.8566 23.1416 68.153 16.9233C61.4494 10.7051 52.6436 7.24985 43.5 7.25ZM60.4251 56.8182C59.6313 61.0486 58.4604 64.9491 56.9487 68.2841C55.4516 71.5974 53.5956 74.4031 51.4025 76.4114C49.1913 78.4305 46.5124 79.75 43.5 79.75C62.6037 79.75 78.2601 64.9709 79.6485 46.2188H61.5779C61.4543 49.7754 61.069 53.3182 60.4251 56.8182Z" fill="#0039C7"/>
</svg>
