<svg width="20" height="19" viewBox="0 0 20 19" fill="none" xmlns="http://www.w3.org/2000/svg">
<path d="M6.89425 2.1196C7.78548 -0.706443 11.7847 -0.706444 12.676 2.1196L12.8597 2.7022C13.2576 3.96383 14.4277 4.82173 15.7505 4.82173H16.5331C19.4476 4.82173 20.6828 8.53306 18.3496 10.2796L17.5623 10.8689C16.5315 11.6405 16.1007 12.9792 16.4879 14.2072L16.7517 15.0435C17.6374 17.8521 14.402 20.1466 12.0443 18.3818L11.6016 18.0503C10.5247 17.2443 9.04547 17.2443 7.96862 18.0503L7.52587 18.3818C5.16821 20.1466 1.93278 17.8521 2.81853 15.0435L3.08226 14.2072C3.46953 12.9792 3.0387 11.6405 2.00789 10.8689L1.2206 10.2796C-1.11256 8.53306 0.12264 4.82173 3.03708 4.82173H3.81966C5.14255 4.82173 6.31264 3.96383 6.71052 2.7022L6.89425 2.1196Z" fill="#0039C7"/>
</svg>
