<svg width="42" height="42" viewBox="0 0 42 42" fill="none" xmlns="http://www.w3.org/2000/svg">
<path d="M15.75 26.25C15.4039 26.25 15.0655 26.3526 14.7778 26.5449C14.49 26.7372 14.2657 27.0105 14.1332 27.3303C14.0008 27.6501 13.9661 28.0019 14.0336 28.3414C14.1011 28.6809 14.2678 28.9927 14.5126 29.2374C14.7573 29.4822 15.0691 29.6488 15.4086 29.7164C15.7481 29.7839 16.0999 29.7492 16.4197 29.6168C16.7395 29.4843 17.0128 29.26 17.2051 28.9722C17.3974 28.6845 17.5 28.3461 17.5 28C17.5 27.5359 17.3156 27.0908 16.9874 26.7626C16.6592 26.4344 16.2141 26.25 15.75 26.25ZM3.5 24.5C3.03587 24.5 2.59075 24.6844 2.26256 25.0126C1.93437 25.3408 1.75 25.7859 1.75 26.25V29.75C1.75 30.2141 1.93437 30.6593 2.26256 30.9874C2.59075 31.3156 3.03587 31.5 3.5 31.5C3.96413 31.5 4.40925 31.3156 4.73744 30.9874C5.06563 30.6593 5.25 30.2141 5.25 29.75V26.25C5.25 25.7859 5.06563 25.3408 4.73744 25.0126C4.40925 24.6844 3.96413 24.5 3.5 24.5ZM38.5 24.5C38.0359 24.5 37.5908 24.6844 37.2626 25.0126C36.9344 25.3408 36.75 25.7859 36.75 26.25V29.75C36.75 30.2141 36.9344 30.6593 37.2626 30.9874C37.5908 31.3156 38.0359 31.5 38.5 31.5C38.9641 31.5 39.4092 31.3156 39.7374 30.9874C40.0656 30.6593 40.25 30.2141 40.25 29.75V26.25C40.25 25.7859 40.0656 25.3408 39.7374 25.0126C39.4092 24.6844 38.9641 24.5 38.5 24.5ZM29.75 12.25H22.75V10.01C23.279 9.70461 23.7188 9.2661 24.0258 8.73805C24.3328 8.21 24.4963 7.6108 24.5 7C24.5 6.07174 24.1313 5.1815 23.4749 4.52513C22.8185 3.86875 21.9283 3.5 21 3.5C20.0717 3.5 19.1815 3.86875 18.5251 4.52513C17.8687 5.1815 17.5 6.07174 17.5 7C17.5037 7.6108 17.6672 8.21 17.9742 8.73805C18.2812 9.2661 18.721 9.70461 19.25 10.01V12.25H12.25C10.8576 12.25 9.52226 12.8031 8.53769 13.7877C7.55312 14.7723 7 16.1076 7 17.5V33.25C7 34.6424 7.55312 35.9777 8.53769 36.9623C9.52226 37.9469 10.8576 38.5 12.25 38.5H29.75C31.1424 38.5 32.4777 37.9469 33.4623 36.9623C34.4469 35.9777 35 34.6424 35 33.25V17.5C35 16.1076 34.4469 14.7723 33.4623 13.7877C32.4777 12.8031 31.1424 12.25 29.75 12.25ZM24.01 15.75L23.135 19.25H18.865L17.99 15.75H24.01ZM31.5 33.25C31.5 33.7141 31.3156 34.1593 30.9874 34.4874C30.6593 34.8156 30.2141 35 29.75 35H12.25C11.7859 35 11.3408 34.8156 11.0126 34.4874C10.6844 34.1593 10.5 33.7141 10.5 33.25V17.5C10.5 17.0359 10.6844 16.5908 11.0126 16.2626C11.3408 15.9344 11.7859 15.75 12.25 15.75H14.385L15.75 21.42C15.8458 21.8083 16.0717 22.152 16.3901 22.394C16.7085 22.636 17.1002 22.7616 17.5 22.75H24.5C24.8998 22.7616 25.2915 22.636 25.6099 22.394C25.9283 22.152 26.1542 21.8083 26.25 21.42L27.615 15.75H29.75C30.2141 15.75 30.6593 15.9344 30.9874 16.2626C31.3156 16.5908 31.5 17.0359 31.5 17.5V33.25ZM26.25 26.25C25.9039 26.25 25.5655 26.3526 25.2778 26.5449C24.99 26.7372 24.7657 27.0105 24.6332 27.3303C24.5008 27.6501 24.4661 28.0019 24.5336 28.3414C24.6012 28.6809 24.7678 28.9927 25.0126 29.2374C25.2573 29.4822 25.5691 29.6488 25.9086 29.7164C26.2481 29.7839 26.5999 29.7492 26.9197 29.6168C27.2395 29.4843 27.5128 29.26 27.7051 28.9722C27.8974 28.6845 28 28.3461 28 28C28 27.5359 27.8156 27.0908 27.4874 26.7626C27.1592 26.4344 26.7141 26.25 26.25 26.25Z" fill="#0039C7"/>
</svg>
