<svg width="23" height="23" viewBox="0 0 23 23" fill="none" xmlns="http://www.w3.org/2000/svg">
<path d="M21.3411 0H1.65876C0.742609 0 0 0.742609 0 1.65876V21.3411C0 22.2572 0.742609 22.9998 1.65876 22.9998H21.3411C22.2572 22.9998 22.9998 22.2572 22.9998 21.3411V1.65876C22.9998 0.742609 22.2572 0 21.3411 0V0ZM8.15817 17.3846H5.35742V8.95851H8.15817V17.3846ZM6.75789 7.80793H6.73964C5.79979 7.80793 5.19195 7.16095 5.19195 6.35236C5.19195 5.52553 5.81839 4.89645 6.77649 4.89645C7.73458 4.89645 8.32417 5.52553 8.34242 6.35236C8.34242 7.16095 7.73458 7.80793 6.75789 7.80793ZM18.2571 17.3846H15.4567V12.8769C15.4567 11.744 15.0512 10.9714 14.0378 10.9714C13.2641 10.9714 12.8033 11.4925 12.6008 11.9956C12.5268 12.1757 12.5087 12.4273 12.5087 12.6791V17.3846H9.70814C9.70814 17.3846 9.74482 9.74903 9.70814 8.95851H12.5087V10.1516C12.8809 9.57741 13.5468 8.76075 15.0327 8.76075C16.8754 8.76075 18.2571 9.96504 18.2571 12.5531V17.3846Z" fill="white"/>
</svg>
