<svg width="23" height="23" viewBox="0 0 23 23" fill="none" xmlns="http://www.w3.org/2000/svg">
<path d="M22.9414 6.76203C22.8875 5.53996 22.6898 4.6998 22.4067 3.97178C22.1146 3.19901 21.6652 2.50715 21.0764 1.93201C20.5011 1.34791 19.8046 0.894046 19.0406 0.606561C18.3083 0.323464 17.4723 0.12584 16.25 0.0719589C15.0186 0.0135142 14.6277 0 11.5044 0C8.38113 0 7.99019 0.0135142 6.76332 0.0673957C5.54102 0.121277 4.70069 0.319076 3.97272 0.601998C3.19962 0.894046 2.50763 1.34335 1.93238 1.93201C1.34817 2.50715 0.894392 3.20358 0.606677 3.96739C0.323526 4.6998 0.125864 5.5354 0.0719726 6.75747C0.0135168 7.98867 0 8.37953 0 11.5022C0 14.6249 0.0135168 15.0157 0.0674085 16.2424C0.1213 17.4644 0.319137 18.3046 0.602288 19.0326C0.894392 19.8054 1.34817 20.4972 1.93238 21.0724C2.50763 21.6565 3.20419 22.1103 3.96815 22.3978C4.70069 22.6809 5.53645 22.8786 6.75894 22.9324C7.98563 22.9865 8.37674 22.9998 11.5 22.9998C14.6233 22.9998 15.0142 22.9865 16.2411 22.9324C17.4634 22.8786 18.3037 22.6809 19.0317 22.3978C20.5777 21.8002 21.8 20.5781 22.3977 19.0326C22.6807 18.3002 22.8785 17.4644 22.9324 16.2424C22.9863 15.0157 22.9998 14.6249 22.9998 11.5022C22.9998 8.37953 22.9953 7.98867 22.9414 6.76203ZM20.8698 16.1525C20.8203 17.2758 20.6316 17.8823 20.4743 18.2867C20.0877 19.2887 19.2924 20.0839 18.2902 20.4704C17.8857 20.6276 17.2747 20.8163 16.1556 20.8656C14.9422 20.9197 14.5783 20.933 11.509 20.933C8.43959 20.933 8.07112 20.9197 6.86215 20.8656C5.73868 20.8163 5.132 20.6276 4.72755 20.4704C4.22883 20.2861 3.77488 19.9941 3.40641 19.6121C3.02443 19.2392 2.73233 18.7899 2.54801 18.2913C2.39072 17.8869 2.20201 17.2758 2.15268 16.1571C2.09862 14.9439 2.08528 14.5799 2.08528 11.5111C2.08528 8.44236 2.09862 8.07397 2.15268 6.86541C2.20201 5.74215 2.39072 5.13559 2.54801 4.73121C2.73233 4.23241 3.02443 3.77872 3.41098 3.41015C3.78383 3.02824 4.23322 2.73619 4.73211 2.55208C5.13657 2.39483 5.74781 2.20616 6.86672 2.15666C8.08007 2.10278 8.44415 2.08927 11.5133 2.08927C14.5873 2.08927 14.9512 2.10278 16.1601 2.15666C17.2836 2.20616 17.8903 2.39483 18.2947 2.55208C18.7935 2.73619 19.2474 3.02824 19.6159 3.41015C19.9979 3.78311 20.29 4.23241 20.4743 4.73121C20.6316 5.13559 20.8203 5.74654 20.8698 6.86541C20.9237 8.07853 20.9372 8.44236 20.9372 11.5111C20.9372 14.5799 20.9237 14.9394 20.8698 16.1525Z" fill="white"/>
</svg>
